<?xml version="1.0" standalone="no"?>
<svg xmlns="http://www.w3.org/2000/svg" viewBox="0 0 101.391 117.076" width="101.391" height="117.076"><polygon fill="#000000" points="101.391,29.269 101.391,87.80699999999999 50.6955,117.076 0,87.80699999999999 0,29.269 50.6955,0"></polygon><g fill="white" color="white" transform="translate(28.695500000000003 22.5) scale(0.9166667)"><svg width="48.0" height="48.0" x="0.0" y="0.0" viewBox="0 0 48 48"><path fill="currentColor" fill-rule="nonzero" d="M24 .21L.21 24 24 47.79 47.79 24 24 .21zM5.82 24L24 5.82l7.69 7.69-2.8 2.8L24 11.43 11.43 24l4.88 4.89-2.8 2.8L5.82 24zm25.15 0L24 30.97 17.03 24 24 17.03 30.97 24zM16.31 34.49l2.8-2.8L24 36.57 36.57 24l-4.89-4.89 2.8-2.8 7.7 7.69L24 42.18l-7.69-7.69z"></path></svg></g><path fill="white" fill-rule="nonzero" d="M5.49 20.08L5.49 20.08Q3.92 20.08 2.67 19.33Q1.43 18.59 0.71 17.29Q0 15.99 0 14.36L0 14.36L0 13.08Q0 12.96 0.11 12.96L0.11 12.96L3.28 12.96Q3.39 12.96 3.39 13.10L3.39 13.10L3.39 14.36Q3.39 15.40 3.98 16.04Q4.56 16.69 5.49 16.69L5.49 16.69Q6.33 16.69 6.94 15.99Q7.56 15.29 7.56 14.36L7.56 14.36L7.56 0.45Q7.56 0.34 7.67 0.34L7.67 0.34L10.81 0.34Q10.92 0.34 10.92 0.48L10.92 0.48L10.95 14.36Q10.95 15.90 10.21 17.21Q9.46 18.51 8.23 19.29Q7 20.08 5.49 20.08ZM17.64 20.08L17.64 20.08Q16.13 20.08 14.90 19.32Q13.66 18.56 12.92 17.29Q12.18 16.02 12.18 14.45L12.18 14.45L12.18 5.57Q12.18 4.06 12.92 2.79Q13.66 1.51 14.91 0.76Q16.16 0 17.64 0L17.64 0Q19.18 0 20.43 0.74Q21.67 1.48 22.40 2.74Q23.13 4.00 23.13 5.57L23.13 5.57L23.13 6.86Q23.13 6.97 22.99 6.97L22.99 6.97L19.85 6.97Q19.74 6.97 19.74 6.86L19.74 6.86L19.74 5.80Q19.74 4.73 19.14 4.03Q18.54 3.33 17.64 3.33L17.64 3.33Q16.83 3.33 16.20 4.00Q15.57 4.68 15.57 5.57L15.57 5.57L15.57 14.45Q15.57 15.37 16.18 16.03Q16.80 16.69 17.64 16.69L17.64 16.69Q18.54 16.69 19.14 16.04Q19.74 15.40 19.74 14.45L19.74 14.45L19.74 13.08L17.78 13.08Q17.64 13.08 17.64 12.94L17.64 12.94L17.64 9.80Q17.64 9.66 17.78 9.66L17.78 9.66L23.02 9.66Q23.13 9.66 23.13 9.80L23.13 9.80L23.13 14.45Q23.13 16.02 22.39 17.29Q21.64 18.56 20.41 19.32Q19.18 20.08 17.64 20.08Z" transform="translate(39.132, 74.5)"></path></svg>